<svg width="192" height="192" viewBox="0 0 192 192" fill="none" xmlns="http://www.w3.org/2000/svg">
  <rect width="192" height="192" rx="32" fill="#1DB954"/>
  <path d="M96 48C69.4903 48 48 69.4903 48 96C48 122.51 69.4903 144 96 144C122.51 144 144 122.51 144 96C144 69.4903 122.51 48 96 48ZM120.24 113.52C119.28 115.44 116.88 116.16 114.96 115.2C101.04 107.76 83.76 105.84 68.16 109.68C65.76 110.4 63.36 108.96 62.64 106.56C61.92 104.16 63.36 101.76 65.76 101.04C83.52 96.72 102.72 98.88 118.32 107.28C120.24 108.24 120.96 111.6 120.24 113.52ZM126 101.04C124.8 103.44 121.68 104.4 119.28 103.2C103.44 94.8 80.4 92.4 62.4 97.44C59.52 98.4 56.64 96.72 55.68 93.84C54.72 90.96 56.4 88.08 59.28 87.12C80.16 81.36 106.08 84.24 124.32 94.32C126.72 95.52 127.2 98.64 126 101.04ZM126.48 88.08C107.28 78.72 76.8 77.28 58.08 82.8C54.48 83.76 50.88 81.6 49.92 78C48.96 74.4 51.12 70.8 54.72 69.84C76.32 63.36 110.4 65.04 132.72 75.84C135.84 77.52 137.04 81.6 135.36 84.72C133.68 87.84 129.6 89.76 126.48 88.08Z" fill="white"/>
  <path d="M136 120L144 112L152 120L144 128L136 120Z" fill="white"/>
  <path d="M120 136L128 144L136 136L128 128L120 136Z" fill="white"/>
</svg>
